<svg xmlns="http://www.w3.org/2000/svg" width="1200" height="630" viewBox="0 0 1200 630" role="img" aria-labelledby="title desc">
  <title id="title">Async ref deadlock case study cover</title>
  <desc id="desc">Sovereign architecture style cover for a Ki-DPOR case study. Licensed CC-BY-4.0.</desc>
  <rect width="1200" height="630" fill="#030712"/>
  <path d="M0 96H1200M0 534H1200M164 0V630M1036 0V630" stroke="#1C2333" stroke-width="2"/>
  <rect x="86" y="72" width="1028" height="486" rx="8" fill="#0D1117" stroke="#1C2333" stroke-width="2"/>
  <text x="116" y="136" fill="#00E5CC" font-family="JetBrains Mono, monospace" font-size="24">CASE STUDY 03</text>
  <text x="116" y="196" fill="#FFFFFF" font-family="Inter, system-ui, sans-serif" font-size="54" font-weight="800">Async ref deadlock</text>
  <text x="116" y="242" fill="#8B9DB5" font-family="Inter, system-ui, sans-serif" font-size="24">a synchronous read guard survives across an async suspension</text>
  <g fill="none" stroke-width="4" font-family="JetBrains Mono, monospace" font-size="18">
    <rect x="212" y="326" width="164" height="92" rx="8" fill="#071B20" stroke="#00E5CC"/>
    <rect x="518" y="326" width="164" height="92" rx="8" fill="#151022" stroke="#7C3AED"/>
    <rect x="824" y="326" width="164" height="92" rx="8" fill="#210D12" stroke="#DC2626"/>
    <path d="M376 372H518" stroke="#00E5CC"/>
    <path d="M682 372H824" stroke="#7C3AED"/>
    <path d="M906 418C800 502 372 502 294 418" stroke="#DC2626"/>
    <text x="246" y="380" fill="#FFFFFF">reader</text>
    <text x="559" y="380" fill="#FFFFFF">timer</text>
    <text x="858" y="380" fill="#FFFFFF">writer</text>
  </g>
  <text x="116" y="536" fill="#8B9DB5" font-family="JetBrains Mono, monospace" font-size="18">CC-BY-4.0 - Laplace Labs - LQ-6 draft</text>
</svg>
