<svg xmlns="http://www.w3.org/2000/svg" width="1200" height="630" viewBox="0 0 1200 630" role="img" aria-labelledby="title desc">
  <title id="title">Channel mutex AB-BA case study cover</title>
  <desc id="desc">Sovereign architecture style cover for a Ki-DPOR case study. Licensed CC-BY-4.0.</desc>
  <rect width="1200" height="630" fill="#030712"/>
  <path d="M0 96H1200M0 534H1200M164 0V630M1036 0V630" stroke="#1C2333" stroke-width="2"/>
  <rect x="86" y="72" width="1028" height="486" rx="8" fill="#0D1117" stroke="#1C2333" stroke-width="2"/>
  <text x="116" y="136" fill="#00E5CC" font-family="JetBrains Mono, monospace" font-size="24">CASE STUDY 02</text>
  <text x="116" y="196" fill="#FFFFFF" font-family="Inter, system-ui, sans-serif" font-size="54" font-weight="800">Channel mutex AB-BA</text>
  <text x="116" y="242" fill="#8B9DB5" font-family="Inter, system-ui, sans-serif" font-size="24">a bounded channel aligns two opposite mutex acquisition paths</text>
  <g fill="none" stroke-width="4" font-family="JetBrains Mono, monospace" font-size="18">
    <rect x="214" y="334" width="128" height="86" rx="8" fill="#071B20" stroke="#00E5CC"/>
    <rect x="824" y="334" width="128" height="86" rx="8" fill="#210D12" stroke="#DC2626"/>
    <rect x="506" y="356" width="150" height="42" rx="6" fill="#151022" stroke="#7C3AED"/>
    <path d="M342 376H506" stroke="#00E5CC"/>
    <path d="M656 376H824" stroke="#7C3AED"/>
    <path d="M278 420C352 514 760 514 888 420" stroke="#DC2626"/>
    <path d="M888 334C812 268 390 268 278 334" stroke="#00E5CC"/>
    <text x="247" y="386" fill="#FFFFFF">A</text>
    <text x="548" y="384" fill="#FFFFFF">chan</text>
    <text x="857" y="386" fill="#FFFFFF">B</text>
  </g>
  <text x="116" y="536" fill="#8B9DB5" font-family="JetBrains Mono, monospace" font-size="18">CC-BY-4.0 - Laplace Labs - LQ-6 draft</text>
</svg>
