<svg xmlns="http://www.w3.org/2000/svg" width="1200" height="630" viewBox="0 0 1200 630" role="img" aria-labelledby="title desc">
  <title id="title">Nested scope deadlock case study cover</title>
  <desc id="desc">Sovereign architecture style cover for a Ki-DPOR case study. Licensed CC-BY-4.0.</desc>
  <rect width="1200" height="630" fill="#030712"/>
  <path d="M0 96H1200M0 534H1200M164 0V630M1036 0V630" stroke="#1C2333" stroke-width="2"/>
  <rect x="86" y="72" width="1028" height="486" rx="8" fill="#0D1117" stroke="#1C2333" stroke-width="2"/>
  <text x="116" y="136" fill="#00E5CC" font-family="JetBrains Mono, monospace" font-size="24">CASE STUDY 05</text>
  <text x="116" y="196" fill="#FFFFFF" font-family="Inter, system-ui, sans-serif" font-size="54" font-weight="800">Nested scope deadlock</text>
  <text x="116" y="242" fill="#8B9DB5" font-family="Inter, system-ui, sans-serif" font-size="24">a Rayon parent waits for a child that needs the parent's mutex</text>
  <g fill="none" stroke-width="4" font-family="JetBrains Mono, monospace" font-size="18">
    <rect x="214" y="304" width="250" height="150" rx="8" fill="#071B20" stroke="#00E5CC"/>
    <rect x="736" y="324" width="220" height="110" rx="8" fill="#210D12" stroke="#DC2626"/>
    <rect x="300" y="354" width="112" height="44" rx="6" fill="#151022" stroke="#7C3AED"/>
    <path d="M464 360C574 288 686 292 736 344" stroke="#00E5CC"/>
    <path d="M736 414C638 500 438 498 356 398" stroke="#DC2626"/>
    <text x="252" y="332" fill="#FFFFFF">parent scope</text>
    <text x="317" y="383" fill="#FFFFFF">mutex</text>
    <text x="786" y="386" fill="#FFFFFF">child</text>
  </g>
  <text x="116" y="536" fill="#8B9DB5" font-family="JetBrains Mono, monospace" font-size="18">CC-BY-4.0 - Laplace Labs - LQ-6 draft</text>
</svg>
