<svg xmlns="http://www.w3.org/2000/svg" width="1200" height="630" viewBox="0 0 1200 630" role="img" aria-labelledby="title desc">
  <title id="title">RwLock upgrade case study cover</title>
  <desc id="desc">Sovereign architecture style cover for a Ki-DPOR case study. Licensed CC-BY-4.0.</desc>
  <rect width="1200" height="630" fill="#030712"/>
  <path d="M0 96H1200M0 534H1200M164 0V630M1036 0V630" stroke="#1C2333" stroke-width="2"/>
  <rect x="86" y="72" width="1028" height="486" rx="8" fill="#0D1117" stroke="#1C2333" stroke-width="2"/>
  <text x="116" y="136" fill="#00E5CC" font-family="JetBrains Mono, monospace" font-size="24">CASE STUDY 04</text>
  <text x="116" y="196" fill="#FFFFFF" font-family="Inter, system-ui, sans-serif" font-size="54" font-weight="800">RwLock upgrade</text>
  <text x="116" y="242" fill="#8B9DB5" font-family="Inter, system-ui, sans-serif" font-size="24">read-mostly cache paths become a two-shard upgrade cycle</text>
  <g fill="none" stroke-width="4" font-family="JetBrains Mono, monospace" font-size="18">
    <circle cx="326" cy="372" r="68" fill="#071B20" stroke="#00E5CC"/>
    <circle cx="874" cy="372" r="68" fill="#210D12" stroke="#DC2626"/>
    <rect x="532" y="342" width="136" height="60" rx="8" fill="#151022" stroke="#7C3AED"/>
    <path d="M394 352C470 310 730 310 806 352" stroke="#00E5CC"/>
    <path d="M806 392C730 440 470 440 394 392" stroke="#DC2626"/>
    <path d="M532 372H394M668 372H806" stroke="#7C3AED"/>
    <text x="298" y="380" fill="#FFFFFF">read A</text>
    <text x="556" y="380" fill="#FFFFFF">inv</text>
    <text x="846" y="380" fill="#FFFFFF">read B</text>
  </g>
  <text x="116" y="536" fill="#8B9DB5" font-family="JetBrains Mono, monospace" font-size="18">CC-BY-4.0 - Laplace Labs - LQ-6 draft</text>
</svg>
