<svg xmlns="http://www.w3.org/2000/svg" width="1200" height="630" viewBox="0 0 1200 630" role="img" aria-labelledby="title desc">
  <title id="title">Tokio watch mutex race case study cover</title>
  <desc id="desc">Sovereign architecture style cover for a Ki-DPOR case study. Licensed CC-BY-4.0.</desc>
  <rect width="1200" height="630" fill="#030712"/>
  <path d="M0 96H1200M0 534H1200M164 0V630M1036 0V630" stroke="#1C2333" stroke-width="2"/>
  <rect x="86" y="72" width="1028" height="486" rx="8" fill="#0D1117" stroke="#1C2333" stroke-width="2"/>
  <text x="116" y="136" fill="#00E5CC" font-family="JetBrains Mono, monospace" font-size="24">CASE STUDY 01</text>
  <text x="116" y="196" fill="#FFFFFF" font-family="Inter, system-ui, sans-serif" font-size="54" font-weight="800">Tokio watch mutex race</text>
  <text x="116" y="242" fill="#8B9DB5" font-family="Inter, system-ui, sans-serif" font-size="24">watch::send wakes a receiver while a sync mutex is still held</text>
  <g fill="none" stroke-width="4" font-family="JetBrains Mono, monospace" font-size="18">
    <circle cx="246" cy="400" r="42" fill="#071B20" stroke="#00E5CC"/>
    <circle cx="496" cy="344" r="42" fill="#151022" stroke="#7C3AED"/>
    <circle cx="746" cy="400" r="42" fill="#210D12" stroke="#DC2626"/>
    <path d="M288 393C352 374 398 360 454 350" stroke="#00E5CC"/>
    <path d="M538 350C600 361 657 379 704 393" stroke="#7C3AED"/>
    <path d="M746 442C668 516 358 518 246 442" stroke="#DC2626"/>
    <text x="217" y="407" fill="#FFFFFF">S0</text>
    <text x="467" y="351" fill="#FFFFFF">R1</text>
    <text x="717" y="407" fill="#FFFFFF">WFG</text>
  </g>
  <text x="116" y="536" fill="#8B9DB5" font-family="JetBrains Mono, monospace" font-size="18">CC-BY-4.0 - Laplace Labs - LQ-6 draft</text>
</svg>
